# xmcd
#
# Track frame offsets:
# 150
# 21185
# 31559
# 47541
# 78485
# 89687
# 116159
# 130854
# 148951
# 165058
#
# Disc length: 2349 seconds
#
#
# Revision: 0
# Processed by: cddbd v1.4PL0 Copyright (c) Steve Scherf et al.
# Submitted via: FreeRIP 2.52 
#
DISCID=79092b0a
DTITLE=Stevie Ray Vaughan - The Sky Is Crying
DYEAR=1995
DGENRE=Blues
TTITLE0=Boot Hill
TTITLE1=The Sky Is Crying
TTITLE2=Empty Arms
TTITLE3=Little Wing
TTITLE4=Wham!
TTITLE5=May I Have A Talk With You
TTITLE6=Close To You
TTITLE7=Chitlins con Carne
TTITLE8=So Excited
TTITLE9=Life By The Drop
EXTD=
EXTT0=
EXTT1=
EXTT2=
EXTT3=
EXTT4=
EXTT5=
EXTT6=
EXTT7=
EXTT8=
EXTT9=
PLAYORDER=
